<?xml version="1.0" encoding="UTF-8"?>
<svg id="PowerPoint" xmlns="http://www.w3.org/2000/svg" viewBox="0 0 40 40">
  <defs>
    <style>
      .cls-1 {
        fill: #333;
      }
    </style>
  </defs>
  <path class="cls-1" d="M23.22,27.98c.78,0,1.33-.78,1.33-2.22s-.55-2.25-1.39-2.25-1.29.79-1.29,2.26.43,2.21,1.35,2.21Z"/>
  <path class="cls-1" d="M14.95,27.98c.78,0,1.33-.78,1.33-2.22s-.55-2.25-1.39-2.25-1.29.79-1.29,2.26.43,2.21,1.35,2.21Z"/>
  <path class="cls-1" d="M26.42,1.17h-.72l-.02-.02v.02H5.79c-.83,0-1.5.67-1.5,1.5v14.34h0v17.04h0v3.37c0,.83.67,1.5,1.5,1.5h28.35c.83,0,1.5-.67,1.5-1.5V11.49L26.42,1.17ZM5.87,2.61h18.88v9.65h9.12v4.69H5.87V2.61ZM27.32,23.59v-1.56h1.07v-.99l2.15-1.24v2.22h1.6v1.56h-1.6v3.35c0,.71.34.96,1.08.96.23,0,.48-.05.62-.1v1.56c-.39.13-.96.21-1.46.21-1.4,0-2.39-.73-2.39-2.28v-3.71h-1.07ZM21.91,30.54v1.88h-2.21v-10.4h2.21v.04c0,.25-.05.62-.13.88h.04c.46-.68,1.13-1.05,1.99-1.05,1.94,0,2.99,1.37,2.99,3.86,0,2.22-1.3,3.81-3.12,3.81-.85,0-1.48-.35-1.91-.99h-.05c.13.55.2,1.03.2,1.96ZM13.64,30.54v1.88h-2.21v-10.4h2.21v.04c0,.25-.05.62-.13.88h.04c.46-.68,1.13-1.05,1.99-1.05,1.94,0,2.99,1.37,2.99,3.86,0,2.22-1.3,3.81-3.12,3.81-.85,0-1.48-.35-1.91-.99h-.05c.13.55.2,1.03.2,1.96ZM10.16,28.18c0,.71-.61,1.39-1.38,1.39s-1.38-.62-1.38-1.39.6-1.37,1.38-1.37,1.38.62,1.38,1.37ZM33.89,37.69H5.87v-3.75h28.03v3.75Z"/>
</svg>